# xmcd
#
# Track frame offsets:
#	150
#	11272
#	23850
#	37712
#	50420
#	65580
#	78035
#	89005
#	103135
#	117032
#	129600
#	141085
#	151787
#	164602
#	176402
#	188362
#
# Disc length: 2651 seconds
#
# Revision: 0
# Processed by: cddbd v1.5.1PL0 Copyright (c) Steve Scherf et al.
# Submitted via: dBpowerAMP V4.0
#
DISCID=be0a5910
DTITLE=Ray Charles - Ray Charles (Disk 2)
DYEAR=2003
DGENRE=Blues
TTITLE0=I'll Do Anything  But Work
TTITLE1=I'm Glad For Your Sake
TTITLE2=I'm Going Down The River
TTITLE3=I'm Just A Lonely Boy
TTITLE4=I'm Wondering And Wondering
TTITLE5=I Will Not Let You Go
TTITLE6=I Wonder Who's Kissing Her Now 
TTITLE7=Kiss Me Baby
TTITLE8=Late In The Evening Blues
TTITLE9=Rockin' Chair Blues
TTITLE10=She's On The Ball
TTITLE11=Sittin' On Top Of The World
TTITLE12=Snow Fall
TTITLE13=St. Petrus Blues
TTITLE14=Tell Me Baby
TTITLE15=They're Crazy About Me
EXTD=
EXTT0=
EXTT1=
EXTT2=
EXTT3=
EXTT4=
EXTT5=
EXTT6=
EXTT7=
EXTT8=
EXTT9=
EXTT10=
EXTT11=
EXTT12=
EXTT13=
EXTT14=
EXTT15=
PLAYORDER=
